<mxfile host="app.diagrams.net" agent="Mozilla/5.0 (Macintosh; Intel Mac OS X 10_15_7) AppleWebKit/605.1.15 (KHTML, like Gecko) Version/18.0 Safari/605.1.15" version="27.0.6">
  <diagram name="第 1 页" id="9dmGVnfgjMt7PtAkneYk">
    <mxGraphModel dx="1697" dy="1162" grid="1" gridSize="10" guides="1" tooltips="1" connect="1" arrows="1" fold="1" page="1" pageScale="1" pageWidth="827" pageHeight="1169" background="#FFFFFF" math="0" shadow="0">
      <root>
        <mxCell id="0" />
        <mxCell id="1" parent="0" />
        <mxCell id="_vKv7suW9C9v6eIGBpXc-9" value="VIP Member registration" style="shape=umlFrame;whiteSpace=wrap;html=1;pointerEvents=0;recursiveResize=0;container=1;collapsible=0;width=260;height=30;" vertex="1" parent="1">
          <mxGeometry x="10" y="10" width="800" height="1130" as="geometry" />
        </mxCell>
        <mxCell id="_vKv7suW9C9v6eIGBpXc-1" value="&lt;p style=&quot;margin: 0px; font-style: normal; font-variant-caps: normal; font-stretch: normal; line-height: normal; font-size-adjust: none; font-kerning: auto; font-variant-alternates: normal; font-variant-ligatures: normal; font-variant-numeric: normal; font-variant-east-asian: normal; font-variant-position: normal; font-variant-emoji: normal; font-feature-settings: normal; font-optical-sizing: auto; font-variation-settings: normal;&quot;&gt;Activity&lt;/p&gt;" style="shape=umlLifeline;perimeter=lifelinePerimeter;whiteSpace=wrap;html=1;container=1;dropTarget=0;collapsible=0;recursiveResize=0;outlineConnect=0;portConstraint=eastwest;newEdgeStyle={&quot;edgeStyle&quot;:&quot;elbowEdgeStyle&quot;,&quot;elbow&quot;:&quot;vertical&quot;,&quot;curved&quot;:0,&quot;rounded&quot;:0};" vertex="1" parent="_vKv7suW9C9v6eIGBpXc-9">
          <mxGeometry x="130" y="60" width="90" height="1010" as="geometry" />
        </mxCell>
        <mxCell id="_vKv7suW9C9v6eIGBpXc-18" value="" style="html=1;points=[[0,0,0,0,5],[0,1,0,0,-5],[1,0,0,0,5],[1,1,0,0,-5]];perimeter=orthogonalPerimeter;outlineConnect=0;targetShapes=umlLifeline;portConstraint=eastwest;newEdgeStyle={&quot;curved&quot;:0,&quot;rounded&quot;:0};" vertex="1" parent="_vKv7suW9C9v6eIGBpXc-1">
          <mxGeometry x="40" y="67" width="10" height="50" as="geometry" />
        </mxCell>
        <mxCell id="_vKv7suW9C9v6eIGBpXc-3" value="&lt;p style=&quot;margin: 0px; font-style: normal; font-variant-caps: normal; font-stretch: normal; line-height: normal; font-size-adjust: none; font-kerning: auto; font-variant-alternates: normal; font-variant-ligatures: normal; font-variant-numeric: normal; font-variant-east-asian: normal; font-variant-position: normal; font-variant-emoji: normal; font-feature-settings: normal; font-optical-sizing: auto; font-variation-settings: normal;&quot;&gt;Auditor&lt;/p&gt;" style="shape=umlLifeline;perimeter=lifelinePerimeter;whiteSpace=wrap;html=1;container=1;dropTarget=0;collapsible=0;recursiveResize=0;outlineConnect=0;portConstraint=eastwest;newEdgeStyle={&quot;edgeStyle&quot;:&quot;elbowEdgeStyle&quot;,&quot;elbow&quot;:&quot;vertical&quot;,&quot;curved&quot;:0,&quot;rounded&quot;:0};" vertex="1" parent="_vKv7suW9C9v6eIGBpXc-9">
          <mxGeometry x="20" y="60" width="90" height="1010" as="geometry" />
        </mxCell>
        <mxCell id="_vKv7suW9C9v6eIGBpXc-4" value="" style="html=1;points=[[0,0,0,0,5],[0,1,0,0,-5],[1,0,0,0,5],[1,1,0,0,-5]];perimeter=orthogonalPerimeter;outlineConnect=0;targetShapes=umlLifeline;portConstraint=eastwest;newEdgeStyle={&quot;curved&quot;:0,&quot;rounded&quot;:0};" vertex="1" parent="_vKv7suW9C9v6eIGBpXc-3">
          <mxGeometry x="40" y="58" width="10" height="50" as="geometry" />
        </mxCell>
        <mxCell id="_vKv7suW9C9v6eIGBpXc-5" value="&lt;p style=&quot;margin: 0px; font-style: normal; font-variant-caps: normal; font-stretch: normal; line-height: normal; font-size-adjust: none; font-kerning: auto; font-variant-alternates: normal; font-variant-ligatures: normal; font-variant-numeric: normal; font-variant-east-asian: normal; font-variant-position: normal; font-variant-emoji: normal; font-feature-settings: normal; font-optical-sizing: auto; font-variation-settings: normal;&quot;&gt;Database&lt;/p&gt;" style="shape=umlLifeline;perimeter=lifelinePerimeter;whiteSpace=wrap;html=1;container=1;dropTarget=0;collapsible=0;recursiveResize=0;outlineConnect=0;portConstraint=eastwest;newEdgeStyle={&quot;edgeStyle&quot;:&quot;elbowEdgeStyle&quot;,&quot;elbow&quot;:&quot;vertical&quot;,&quot;curved&quot;:0,&quot;rounded&quot;:0};" vertex="1" parent="_vKv7suW9C9v6eIGBpXc-9">
          <mxGeometry x="350" y="60" width="90" height="1010" as="geometry" />
        </mxCell>
        <mxCell id="_vKv7suW9C9v6eIGBpXc-14" value="" style="html=1;points=[[0,0,0,0,5],[0,1,0,0,-5],[1,0,0,0,5],[1,1,0,0,-5]];perimeter=orthogonalPerimeter;outlineConnect=0;targetShapes=umlLifeline;portConstraint=eastwest;newEdgeStyle={&quot;curved&quot;:0,&quot;rounded&quot;:0};" vertex="1" parent="_vKv7suW9C9v6eIGBpXc-5">
          <mxGeometry x="40" y="210" width="10" height="120" as="geometry" />
        </mxCell>
        <mxCell id="_vKv7suW9C9v6eIGBpXc-7" value="&lt;p style=&quot;margin: 0px; font-style: normal; font-variant-caps: normal; font-stretch: normal; line-height: normal; font-size-adjust: none; font-kerning: auto; font-variant-alternates: normal; font-variant-ligatures: normal; font-variant-numeric: normal; font-variant-east-asian: normal; font-variant-position: normal; font-variant-emoji: normal; font-feature-settings: normal; font-optical-sizing: auto; font-variation-settings: normal;&quot;&gt;Review&lt;/p&gt;" style="shape=umlLifeline;perimeter=lifelinePerimeter;whiteSpace=wrap;html=1;container=1;dropTarget=0;collapsible=0;recursiveResize=0;outlineConnect=0;portConstraint=eastwest;newEdgeStyle={&quot;edgeStyle&quot;:&quot;elbowEdgeStyle&quot;,&quot;elbow&quot;:&quot;vertical&quot;,&quot;curved&quot;:0,&quot;rounded&quot;:0};" vertex="1" parent="_vKv7suW9C9v6eIGBpXc-9">
          <mxGeometry x="240" y="60" width="90" height="1010" as="geometry" />
        </mxCell>
        <mxCell id="_vKv7suW9C9v6eIGBpXc-8" value="" style="html=1;points=[[0,0,0,0,5],[0,1,0,0,-5],[1,0,0,0,5],[1,1,0,0,-5]];perimeter=orthogonalPerimeter;outlineConnect=0;targetShapes=umlLifeline;portConstraint=eastwest;newEdgeStyle={&quot;curved&quot;:0,&quot;rounded&quot;:0};" vertex="1" parent="_vKv7suW9C9v6eIGBpXc-7">
          <mxGeometry x="40" y="87" width="10" height="64" as="geometry" />
        </mxCell>
        <mxCell id="_vKv7suW9C9v6eIGBpXc-11" value="&lt;p style=&quot;margin: 0px; font-style: normal; font-variant-caps: normal; font-stretch: normal; line-height: normal; font-size-adjust: none; font-kerning: auto; font-variant-alternates: normal; font-variant-ligatures: normal; font-variant-numeric: normal; font-variant-east-asian: normal; font-variant-position: normal; font-variant-emoji: normal; font-feature-settings: normal; font-optical-sizing: auto; font-variation-settings: normal;&quot;&gt;支付服务&lt;/p&gt;" style="shape=umlLifeline;perimeter=lifelinePerimeter;whiteSpace=wrap;html=1;container=1;dropTarget=0;collapsible=0;recursiveResize=0;outlineConnect=0;portConstraint=eastwest;newEdgeStyle={&quot;edgeStyle&quot;:&quot;elbowEdgeStyle&quot;,&quot;elbow&quot;:&quot;vertical&quot;,&quot;curved&quot;:0,&quot;rounded&quot;:0};" vertex="1" parent="_vKv7suW9C9v6eIGBpXc-9">
          <mxGeometry x="570" y="60" width="90" height="1010" as="geometry" />
        </mxCell>
        <mxCell id="_vKv7suW9C9v6eIGBpXc-13" value="&lt;p style=&quot;margin: 0px; font-style: normal; font-variant-caps: normal; font-stretch: normal; line-height: normal; font-size-adjust: none; font-kerning: auto; font-variant-alternates: normal; font-variant-ligatures: normal; font-variant-numeric: normal; font-variant-east-asian: normal; font-variant-position: normal; font-variant-emoji: normal; font-feature-settings: normal; font-optical-sizing: auto; font-variation-settings: normal;&quot;&gt;Organize&lt;/p&gt;" style="shape=umlLifeline;perimeter=lifelinePerimeter;whiteSpace=wrap;html=1;container=1;dropTarget=0;collapsible=0;recursiveResize=0;outlineConnect=0;portConstraint=eastwest;newEdgeStyle={&quot;edgeStyle&quot;:&quot;elbowEdgeStyle&quot;,&quot;elbow&quot;:&quot;vertical&quot;,&quot;curved&quot;:0,&quot;rounded&quot;:0};" vertex="1" parent="_vKv7suW9C9v6eIGBpXc-9">
          <mxGeometry x="460" y="60" width="90" height="1010" as="geometry" />
        </mxCell>
        <mxCell id="_vKv7suW9C9v6eIGBpXc-15" value="&lt;p style=&quot;margin: 0px; font-style: normal; font-variant-caps: normal; font-stretch: normal; line-height: normal; font-size-adjust: none; font-kerning: auto; font-variant-alternates: normal; font-variant-ligatures: normal; font-variant-numeric: normal; font-variant-east-asian: normal; font-variant-position: normal; font-variant-emoji: normal; font-feature-settings: normal; font-optical-sizing: auto; font-variation-settings: normal;&quot;&gt;外部支付系统&lt;/p&gt;" style="shape=umlLifeline;perimeter=lifelinePerimeter;whiteSpace=wrap;html=1;container=1;dropTarget=0;collapsible=0;recursiveResize=0;outlineConnect=0;portConstraint=eastwest;newEdgeStyle={&quot;edgeStyle&quot;:&quot;elbowEdgeStyle&quot;,&quot;elbow&quot;:&quot;vertical&quot;,&quot;curved&quot;:0,&quot;rounded&quot;:0};" vertex="1" parent="_vKv7suW9C9v6eIGBpXc-9">
          <mxGeometry x="680" y="60" width="90" height="1010" as="geometry" />
        </mxCell>
        <mxCell id="_vKv7suW9C9v6eIGBpXc-59" value="" style="html=1;points=[[0,0,0,0,5],[0,1,0,0,-5],[1,0,0,0,5],[1,1,0,0,-5]];perimeter=orthogonalPerimeter;outlineConnect=0;targetShapes=umlLifeline;portConstraint=eastwest;newEdgeStyle={&quot;curved&quot;:0,&quot;rounded&quot;:0};" vertex="1" parent="_vKv7suW9C9v6eIGBpXc-15">
          <mxGeometry x="40" y="520" width="10" height="50" as="geometry" />
        </mxCell>
        <mxCell id="_vKv7suW9C9v6eIGBpXc-17" value="" style="endArrow=open;startArrow=none;endFill=0;startFill=0;endSize=8;html=1;verticalAlign=bottom;labelBackgroundColor=none;strokeWidth=1;rounded=0;" edge="1" parent="_vKv7suW9C9v6eIGBpXc-9">
          <mxGeometry width="160" relative="1" as="geometry">
            <mxPoint x="70" y="142" as="sourcePoint" />
            <mxPoint x="170" y="142" as="targetPoint" />
          </mxGeometry>
        </mxCell>
        <mxCell id="_vKv7suW9C9v6eIGBpXc-20" value="&lt;p style=&quot;margin: 0px; font-style: normal; font-variant-caps: normal; font-stretch: normal; line-height: normal; font-size-adjust: none; font-kerning: auto; font-variant-alternates: normal; font-variant-ligatures: normal; font-variant-numeric: normal; font-variant-east-asian: normal; font-variant-position: normal; font-variant-emoji: normal; font-feature-settings: normal; font-optical-sizing: auto; font-variation-settings: normal;&quot;&gt;获取注册页面&lt;/p&gt;" style="text;html=1;align=center;verticalAlign=middle;whiteSpace=wrap;rounded=0;" vertex="1" parent="_vKv7suW9C9v6eIGBpXc-9">
          <mxGeometry x="80" y="118" width="80" height="20" as="geometry" />
        </mxCell>
        <mxCell id="_vKv7suW9C9v6eIGBpXc-22" value="" style="endArrow=open;startArrow=none;endFill=0;startFill=0;endSize=8;html=1;verticalAlign=bottom;labelBackgroundColor=none;strokeWidth=1;rounded=0;" edge="1" parent="_vKv7suW9C9v6eIGBpXc-9">
          <mxGeometry width="160" relative="1" as="geometry">
            <mxPoint x="180" y="160" as="sourcePoint" />
            <mxPoint x="280" y="160" as="targetPoint" />
          </mxGeometry>
        </mxCell>
        <mxCell id="_vKv7suW9C9v6eIGBpXc-23" value="&lt;p style=&quot;margin: 0px; font-style: normal; font-variant-caps: normal; font-stretch: normal; line-height: normal; font-size-adjust: none; font-kerning: auto; font-variant-alternates: normal; font-variant-ligatures: normal; font-variant-numeric: normal; font-variant-east-asian: normal; font-variant-position: normal; font-variant-emoji: normal; font-feature-settings: normal; font-optical-sizing: auto; font-variation-settings: normal;&quot;&gt;提交注册信息&lt;/p&gt;" style="text;html=1;align=center;verticalAlign=middle;whiteSpace=wrap;rounded=0;" vertex="1" parent="_vKv7suW9C9v6eIGBpXc-9">
          <mxGeometry x="190" y="138" width="80" height="20" as="geometry" />
        </mxCell>
        <mxCell id="_vKv7suW9C9v6eIGBpXc-25" value="" style="endArrow=open;startArrow=none;endFill=0;startFill=0;endSize=8;html=1;verticalAlign=bottom;labelBackgroundColor=none;strokeWidth=1;rounded=0;" edge="1" parent="_vKv7suW9C9v6eIGBpXc-9" target="_vKv7suW9C9v6eIGBpXc-8">
          <mxGeometry width="160" relative="1" as="geometry">
            <mxPoint x="290" y="170" as="sourcePoint" />
            <mxPoint x="450" y="170" as="targetPoint" />
            <Array as="points">
              <mxPoint x="330" y="170" />
              <mxPoint x="330" y="190" />
              <mxPoint x="330" y="200" />
            </Array>
          </mxGeometry>
        </mxCell>
        <mxCell id="_vKv7suW9C9v6eIGBpXc-26" value="&lt;p style=&quot;margin: 0px; font-style: normal; font-variant-caps: normal; font-stretch: normal; line-height: normal; font-size-adjust: none; font-kerning: auto; font-variant-alternates: normal; font-variant-ligatures: normal; font-variant-numeric: normal; font-variant-east-asian: normal; font-variant-position: normal; font-variant-emoji: normal; font-feature-settings: normal; font-optical-sizing: auto; font-variation-settings: normal;&quot;&gt;验证信息&lt;/p&gt;" style="text;html=1;align=center;verticalAlign=middle;whiteSpace=wrap;rounded=0;" vertex="1" parent="_vKv7suW9C9v6eIGBpXc-9">
          <mxGeometry x="300" y="172" width="60" height="24" as="geometry" />
        </mxCell>
        <mxCell id="_vKv7suW9C9v6eIGBpXc-97" value="Auditor" style="rounded=0;whiteSpace=wrap;html=1;" vertex="1" parent="_vKv7suW9C9v6eIGBpXc-9">
          <mxGeometry x="20" y="1070" width="90" height="40" as="geometry" />
        </mxCell>
        <mxCell id="_vKv7suW9C9v6eIGBpXc-98" value="Activity" style="rounded=0;whiteSpace=wrap;html=1;" vertex="1" parent="_vKv7suW9C9v6eIGBpXc-9">
          <mxGeometry x="130" y="1070" width="90" height="40" as="geometry" />
        </mxCell>
        <mxCell id="_vKv7suW9C9v6eIGBpXc-103" value="外部支付系统" style="rounded=0;whiteSpace=wrap;html=1;" vertex="1" parent="_vKv7suW9C9v6eIGBpXc-9">
          <mxGeometry x="680" y="1070" width="90" height="40" as="geometry" />
        </mxCell>
        <mxCell id="_vKv7suW9C9v6eIGBpXc-102" value="支付服务" style="rounded=0;whiteSpace=wrap;html=1;" vertex="1" parent="_vKv7suW9C9v6eIGBpXc-9">
          <mxGeometry x="570" y="1070" width="90" height="40" as="geometry" />
        </mxCell>
        <mxCell id="_vKv7suW9C9v6eIGBpXc-101" value="Review" style="rounded=0;whiteSpace=wrap;html=1;" vertex="1" parent="_vKv7suW9C9v6eIGBpXc-9">
          <mxGeometry x="240" y="1070" width="90" height="40" as="geometry" />
        </mxCell>
        <mxCell id="_vKv7suW9C9v6eIGBpXc-100" value="Database" style="rounded=0;whiteSpace=wrap;html=1;" vertex="1" parent="_vKv7suW9C9v6eIGBpXc-9">
          <mxGeometry x="350" y="1070" width="90" height="40" as="geometry" />
        </mxCell>
        <mxCell id="_vKv7suW9C9v6eIGBpXc-104" style="edgeStyle=orthogonalEdgeStyle;rounded=0;orthogonalLoop=1;jettySize=auto;html=1;exitX=0.5;exitY=1;exitDx=0;exitDy=0;" edge="1" parent="_vKv7suW9C9v6eIGBpXc-9" source="_vKv7suW9C9v6eIGBpXc-100" target="_vKv7suW9C9v6eIGBpXc-100">
          <mxGeometry relative="1" as="geometry" />
        </mxCell>
        <mxCell id="_vKv7suW9C9v6eIGBpXc-105" value="Organize" style="rounded=0;whiteSpace=wrap;html=1;" vertex="1" parent="_vKv7suW9C9v6eIGBpXc-9">
          <mxGeometry x="460" y="1070" width="90" height="40" as="geometry" />
        </mxCell>
        <mxCell id="_vKv7suW9C9v6eIGBpXc-27" value="alt" style="shape=umlFrame;whiteSpace=wrap;html=1;pointerEvents=0;recursiveResize=0;container=1;collapsible=0;width=60;height=30;" vertex="1" parent="1">
          <mxGeometry x="20" y="240" width="780" height="830" as="geometry" />
        </mxCell>
        <mxCell id="_vKv7suW9C9v6eIGBpXc-28" value="【信息验证通过】" style="text;html=1;" vertex="1" parent="_vKv7suW9C9v6eIGBpXc-27">
          <mxGeometry width="100" height="20" relative="1" as="geometry">
            <mxPoint x="335" y="3" as="offset" />
          </mxGeometry>
        </mxCell>
        <mxCell id="_vKv7suW9C9v6eIGBpXc-29" value="" style="line;strokeWidth=1;dashed=1;labelPosition=center;verticalLabelPosition=bottom;align=left;verticalAlign=top;spacingLeft=20;spacingTop=15;html=1;whiteSpace=wrap;" vertex="1" parent="_vKv7suW9C9v6eIGBpXc-27">
          <mxGeometry y="730" width="780" height="10" as="geometry" />
        </mxCell>
        <mxCell id="_vKv7suW9C9v6eIGBpXc-33" value="" style="html=1;points=[[0,0,0,0,5],[0,1,0,0,-5],[1,0,0,0,5],[1,1,0,0,-5]];perimeter=orthogonalPerimeter;outlineConnect=0;targetShapes=umlLifeline;portConstraint=eastwest;newEdgeStyle={&quot;curved&quot;:0,&quot;rounded&quot;:0};" vertex="1" parent="_vKv7suW9C9v6eIGBpXc-27">
          <mxGeometry x="270" y="40" width="10" height="230" as="geometry" />
        </mxCell>
        <mxCell id="_vKv7suW9C9v6eIGBpXc-32" value="" style="endArrow=open;startArrow=none;endFill=0;startFill=0;endSize=8;html=1;verticalAlign=bottom;labelBackgroundColor=none;strokeWidth=1;rounded=0;" edge="1" parent="_vKv7suW9C9v6eIGBpXc-27">
          <mxGeometry width="160" relative="1" as="geometry">
            <mxPoint x="280" y="60" as="sourcePoint" />
            <mxPoint x="380" y="60" as="targetPoint" />
          </mxGeometry>
        </mxCell>
        <mxCell id="_vKv7suW9C9v6eIGBpXc-34" value="&lt;p style=&quot;margin: 0px; font-style: normal; font-variant-caps: normal; font-stretch: normal; line-height: normal; font-size-adjust: none; font-kerning: auto; font-variant-alternates: normal; font-variant-ligatures: normal; font-variant-numeric: normal; font-variant-east-asian: normal; font-variant-position: normal; font-variant-emoji: normal; font-feature-settings: normal; font-optical-sizing: auto; font-variation-settings: normal;&quot;&gt;保存会员信息&lt;/p&gt;" style="text;html=1;align=center;verticalAlign=middle;whiteSpace=wrap;rounded=0;" vertex="1" parent="_vKv7suW9C9v6eIGBpXc-27">
          <mxGeometry x="290" y="37" width="80" height="20" as="geometry" />
        </mxCell>
        <mxCell id="_vKv7suW9C9v6eIGBpXc-36" value="" style="endArrow=open;startArrow=none;endFill=0;startFill=0;endSize=8;html=1;verticalAlign=bottom;labelBackgroundColor=none;strokeWidth=1;rounded=0;" edge="1" parent="_vKv7suW9C9v6eIGBpXc-27">
          <mxGeometry width="160" relative="1" as="geometry">
            <mxPoint x="380" y="90" as="sourcePoint" />
            <mxPoint x="280" y="90" as="targetPoint" />
          </mxGeometry>
        </mxCell>
        <mxCell id="_vKv7suW9C9v6eIGBpXc-37" value="&lt;p style=&quot;margin: 0px; font-style: normal; font-variant-caps: normal; font-stretch: normal; line-height: normal; font-size-adjust: none; font-kerning: auto; font-variant-alternates: normal; font-variant-ligatures: normal; font-variant-numeric: normal; font-variant-east-asian: normal; font-variant-position: normal; font-variant-emoji: normal; font-feature-settings: normal; font-optical-sizing: auto; font-variation-settings: normal;&quot;&gt;保存成功返回&lt;/p&gt;" style="text;html=1;align=center;verticalAlign=middle;whiteSpace=wrap;rounded=0;" vertex="1" parent="_vKv7suW9C9v6eIGBpXc-27">
          <mxGeometry x="290" y="70" width="80" height="20" as="geometry" />
        </mxCell>
        <mxCell id="_vKv7suW9C9v6eIGBpXc-38" value="" style="endArrow=open;startArrow=none;endFill=0;startFill=0;endSize=8;html=1;verticalAlign=bottom;labelBackgroundColor=none;strokeWidth=1;rounded=0;" edge="1" parent="_vKv7suW9C9v6eIGBpXc-27">
          <mxGeometry width="160" relative="1" as="geometry">
            <mxPoint x="280" y="123" as="sourcePoint" />
            <mxPoint x="380" y="123" as="targetPoint" />
          </mxGeometry>
        </mxCell>
        <mxCell id="_vKv7suW9C9v6eIGBpXc-39" value="&lt;p style=&quot;margin: 0px; font-style: normal; font-variant-caps: normal; font-stretch: normal; line-height: normal; font-size-adjust: none; font-kerning: auto; font-variant-alternates: normal; font-variant-ligatures: normal; font-variant-numeric: normal; font-variant-east-asian: normal; font-variant-position: normal; font-variant-emoji: normal; font-feature-settings: normal; font-optical-sizing: auto; font-variation-settings: normal;&quot;&gt;更新状态为待支付&lt;/p&gt;" style="text;html=1;align=center;verticalAlign=middle;whiteSpace=wrap;rounded=0;" vertex="1" parent="_vKv7suW9C9v6eIGBpXc-27">
          <mxGeometry x="280" y="100" width="100" height="20" as="geometry" />
        </mxCell>
        <mxCell id="_vKv7suW9C9v6eIGBpXc-40" value="" style="endArrow=open;startArrow=none;endFill=0;startFill=0;endSize=8;html=1;verticalAlign=bottom;labelBackgroundColor=none;strokeWidth=1;rounded=0;" edge="1" parent="_vKv7suW9C9v6eIGBpXc-27">
          <mxGeometry width="160" relative="1" as="geometry">
            <mxPoint x="380" y="153" as="sourcePoint" />
            <mxPoint x="280" y="153" as="targetPoint" />
          </mxGeometry>
        </mxCell>
        <mxCell id="_vKv7suW9C9v6eIGBpXc-41" value="&lt;p style=&quot;margin: 0px; font-style: normal; font-variant-caps: normal; font-stretch: normal; line-height: normal; font-size-adjust: none; font-kerning: auto; font-variant-alternates: normal; font-variant-ligatures: normal; font-variant-numeric: normal; font-variant-east-asian: normal; font-variant-position: normal; font-variant-emoji: normal; font-feature-settings: normal; font-optical-sizing: auto; font-variation-settings: normal;&quot;&gt;更新成功返回&lt;/p&gt;" style="text;html=1;align=center;verticalAlign=middle;whiteSpace=wrap;rounded=0;" vertex="1" parent="_vKv7suW9C9v6eIGBpXc-27">
          <mxGeometry x="290" y="133" width="80" height="20" as="geometry" />
        </mxCell>
        <mxCell id="_vKv7suW9C9v6eIGBpXc-42" value="" style="html=1;points=[[0,0,0,0,5],[0,1,0,0,-5],[1,0,0,0,5],[1,1,0,0,-5]];perimeter=orthogonalPerimeter;outlineConnect=0;targetShapes=umlLifeline;portConstraint=eastwest;newEdgeStyle={&quot;curved&quot;:0,&quot;rounded&quot;:0};" vertex="1" parent="_vKv7suW9C9v6eIGBpXc-27">
          <mxGeometry x="600" y="174" width="10" height="64" as="geometry" />
        </mxCell>
        <mxCell id="_vKv7suW9C9v6eIGBpXc-43" value="" style="endArrow=open;startArrow=none;endFill=0;startFill=0;endSize=8;html=1;verticalAlign=bottom;labelBackgroundColor=none;strokeWidth=1;rounded=0;" edge="1" parent="_vKv7suW9C9v6eIGBpXc-27" target="_vKv7suW9C9v6eIGBpXc-42">
          <mxGeometry width="160" relative="1" as="geometry">
            <mxPoint x="280" y="191.57999999999998" as="sourcePoint" />
            <mxPoint x="440" y="191.57999999999998" as="targetPoint" />
          </mxGeometry>
        </mxCell>
        <mxCell id="_vKv7suW9C9v6eIGBpXc-44" value="&lt;p style=&quot;margin: 0px; font-style: normal; font-variant-caps: normal; font-stretch: normal; line-height: normal; font-size-adjust: none; font-kerning: auto; font-variant-alternates: normal; font-variant-ligatures: normal; font-variant-numeric: normal; font-variant-east-asian: normal; font-variant-position: normal; font-variant-emoji: normal; font-feature-settings: normal; font-optical-sizing: auto; font-variation-settings: normal;&quot;&gt;生成支付订单&lt;/p&gt;" style="text;html=1;align=center;verticalAlign=middle;whiteSpace=wrap;rounded=0;" vertex="1" parent="_vKv7suW9C9v6eIGBpXc-27">
          <mxGeometry x="400" y="170" width="80" height="20" as="geometry" />
        </mxCell>
        <mxCell id="_vKv7suW9C9v6eIGBpXc-47" value="" style="html=1;points=[[0,0,0,0,5],[0,1,0,0,-5],[1,0,0,0,5],[1,1,0,0,-5]];perimeter=orthogonalPerimeter;outlineConnect=0;targetShapes=umlLifeline;portConstraint=eastwest;newEdgeStyle={&quot;curved&quot;:0,&quot;rounded&quot;:0};" vertex="1" parent="_vKv7suW9C9v6eIGBpXc-27">
          <mxGeometry x="160" y="238" width="10" height="122" as="geometry" />
        </mxCell>
        <mxCell id="_vKv7suW9C9v6eIGBpXc-48" value="" style="endArrow=open;startArrow=none;endFill=0;startFill=0;endSize=8;html=1;verticalAlign=bottom;labelBackgroundColor=none;strokeWidth=1;rounded=0;" edge="1" parent="_vKv7suW9C9v6eIGBpXc-27">
          <mxGeometry width="160" relative="1" as="geometry">
            <mxPoint x="270" y="257" as="sourcePoint" />
            <mxPoint x="170" y="257" as="targetPoint" />
          </mxGeometry>
        </mxCell>
        <mxCell id="_vKv7suW9C9v6eIGBpXc-49" value="&lt;p style=&quot;margin: 0px; font-style: normal; font-variant-caps: normal; font-stretch: normal; line-height: normal; font-size-adjust: none; font-kerning: auto; font-variant-alternates: normal; font-variant-ligatures: normal; font-variant-numeric: normal; font-variant-east-asian: normal; font-variant-position: normal; font-variant-emoji: normal; font-feature-settings: normal; font-optical-sizing: auto; font-variation-settings: normal;&quot;&gt;返回支付结果&lt;/p&gt;" style="text;html=1;align=center;verticalAlign=middle;whiteSpace=wrap;rounded=0;" vertex="1" parent="_vKv7suW9C9v6eIGBpXc-27">
          <mxGeometry x="180" y="238" width="80" height="20" as="geometry" />
        </mxCell>
        <mxCell id="_vKv7suW9C9v6eIGBpXc-50" value="" style="html=1;points=[[0,0,0,0,5],[0,1,0,0,-5],[1,0,0,0,5],[1,1,0,0,-5]];perimeter=orthogonalPerimeter;outlineConnect=0;targetShapes=umlLifeline;portConstraint=eastwest;newEdgeStyle={&quot;curved&quot;:0,&quot;rounded&quot;:0};" vertex="1" parent="_vKv7suW9C9v6eIGBpXc-27">
          <mxGeometry x="50" y="280" width="10" height="60" as="geometry" />
        </mxCell>
        <mxCell id="_vKv7suW9C9v6eIGBpXc-51" value="" style="endArrow=open;startArrow=none;endFill=0;startFill=0;endSize=8;html=1;verticalAlign=bottom;labelBackgroundColor=none;strokeWidth=1;rounded=0;" edge="1" parent="_vKv7suW9C9v6eIGBpXc-27">
          <mxGeometry width="160" relative="1" as="geometry">
            <mxPoint x="160" y="289" as="sourcePoint" />
            <mxPoint x="60" y="289" as="targetPoint" />
          </mxGeometry>
        </mxCell>
        <mxCell id="_vKv7suW9C9v6eIGBpXc-52" value="&lt;p style=&quot;margin: 0px; font-style: normal; font-variant-caps: normal; font-stretch: normal; line-height: normal; font-size-adjust: none; font-kerning: auto; font-variant-alternates: normal; font-variant-ligatures: normal; font-variant-numeric: normal; font-variant-east-asian: normal; font-variant-position: normal; font-variant-emoji: normal; font-feature-settings: normal; font-optical-sizing: auto; font-variation-settings: normal;&quot;&gt;显示&lt;span style=&quot;caret-color: rgba(0, 0, 0, 0); color: rgba(0, 0, 0, 0); font-family: monospace; font-size: 0px; text-align: start; white-space: nowrap;&quot;&gt;%3CmxGraphModel%3E%3Croot%3E%3CmxCell%20id%3D%220%22%2F%3E%3CmxCell%20id%3D%221%22%20parent%3D%220%22%2F%3E%3CmxCell%20id%3D%222%22%20value%3D%22%22%20style%3D%22endArrow%3Dopen%3BstartArrow%3Dnone%3BendFill%3D0%3BstartFill%3D0%3BendSize%3D8%3Bhtml%3D1%3BverticalAlign%3Dbottom%3BlabelBackgroundColor%3Dnone%3BstrokeWidth%3D1%3Brounded%3D0%3B%22%20edge%3D%221%22%20parent%3D%221%22%3E%3CmxGeometry%20width%3D%22160%22%20relative%3D%221%22%20as%3D%22geometry%22%3E%3CmxPoint%20x%3D%22290%22%20y%3D%22497%22%20as%3D%22sourcePoint%22%2F%3E%3CmxPoint%20x%3D%22190%22%20y%3D%22497%22%20as%3D%22targetPoint%22%2F%3E%3C%2FmxGeometry%3E%3C%2FmxCell%3E%3CmxCell%20id%3D%223%22%20value%3D%22%26lt%3Bp%20style%3D%26quot%3Bmargin%3A%200px%3B%20font-style%3A%20normal%3B%20font-variant-caps%3A%20normal%3B%20font-stretch%3A%20normal%3B%20line-height%3A%20normal%3B%20font-size-adjust%3A%20none%3B%20font-kerning%3A%20auto%3B%20font-variant-alternates%3A%20normal%3B%20font-variant-ligatures%3A%20normal%3B%20font-variant-numeric%3A%20normal%3B%20font-variant-east-asian%3A%20normal%3B%20font-variant-position%3A%20normal%3B%20font-variant-emoji%3A%20normal%3B%20font-feature-settings%3A%20normal%3B%20font-optical-sizing%3A%20auto%3B%20font-variation-settings%3A%20normal%3B%26quot%3B%26gt%3B%E8%BF%94%E5%9B%9E%E6%94%AF%E4%BB%98%E7%BB%93%E6%9E%9C%26lt%3B%2Fp%26gt%3B%22%20style%3D%22text%3Bhtml%3D1%3Balign%3Dcenter%3BverticalAlign%3Dmiddle%3BwhiteSpace%3Dwrap%3Brounded%3D0%3B%22%20vertex%3D%221%22%20parent%3D%221%22%3E%3CmxGeometry%20x%3D%22200%22%20y%3D%22478%22%20width%3D%2280%22%20height%3D%2220%22%20as%3D%22geometry%22%2F%3E%3C%2FmxCell%3E%3C%2Froot%3E%3C%2FmxGraphModel%3E&lt;/span&gt;支付页面&lt;/p&gt;" style="text;html=1;align=center;verticalAlign=middle;whiteSpace=wrap;rounded=0;" vertex="1" parent="_vKv7suW9C9v6eIGBpXc-27">
          <mxGeometry x="70" y="270" width="80" height="20" as="geometry" />
        </mxCell>
        <mxCell id="_vKv7suW9C9v6eIGBpXc-54" value="&lt;p style=&quot;margin: 0px; font-style: normal; font-variant-caps: normal; font-stretch: normal; line-height: normal; font-size-adjust: none; font-kerning: auto; font-variant-alternates: normal; font-variant-ligatures: normal; font-variant-numeric: normal; font-variant-east-asian: normal; font-variant-position: normal; font-variant-emoji: normal; font-feature-settings: normal; font-optical-sizing: auto; font-variation-settings: normal;&quot;&gt;发起支付&lt;/p&gt;" style="text;html=1;align=center;verticalAlign=middle;whiteSpace=wrap;rounded=0;" vertex="1" parent="_vKv7suW9C9v6eIGBpXc-27">
          <mxGeometry x="70" y="310" width="80" height="20" as="geometry" />
        </mxCell>
        <mxCell id="_vKv7suW9C9v6eIGBpXc-55" value="" style="endArrow=open;startArrow=none;endFill=0;startFill=0;endSize=8;html=1;verticalAlign=bottom;labelBackgroundColor=none;strokeWidth=1;rounded=0;" edge="1" parent="_vKv7suW9C9v6eIGBpXc-27" target="_vKv7suW9C9v6eIGBpXc-47">
          <mxGeometry width="160" relative="1" as="geometry">
            <mxPoint x="60" y="330" as="sourcePoint" />
            <mxPoint x="220" y="330" as="targetPoint" />
          </mxGeometry>
        </mxCell>
        <mxCell id="_vKv7suW9C9v6eIGBpXc-56" value="" style="html=1;points=[[0,0,0,0,5],[0,1,0,0,-5],[1,0,0,0,5],[1,1,0,0,-5]];perimeter=orthogonalPerimeter;outlineConnect=0;targetShapes=umlLifeline;portConstraint=eastwest;newEdgeStyle={&quot;curved&quot;:0,&quot;rounded&quot;:0};" vertex="1" parent="_vKv7suW9C9v6eIGBpXc-27">
          <mxGeometry x="600" y="330" width="10" height="80" as="geometry" />
        </mxCell>
        <mxCell id="_vKv7suW9C9v6eIGBpXc-57" value="" style="endArrow=open;startArrow=none;endFill=0;startFill=0;endSize=8;html=1;verticalAlign=bottom;labelBackgroundColor=none;strokeWidth=1;rounded=0;" edge="1" parent="_vKv7suW9C9v6eIGBpXc-27" target="_vKv7suW9C9v6eIGBpXc-56">
          <mxGeometry width="160" relative="1" as="geometry">
            <mxPoint x="170" y="350" as="sourcePoint" />
            <mxPoint x="330" y="350" as="targetPoint" />
          </mxGeometry>
        </mxCell>
        <mxCell id="_vKv7suW9C9v6eIGBpXc-58" value="&lt;p style=&quot;margin: 0px; font-style: normal; font-variant-caps: normal; font-stretch: normal; line-height: normal; font-size-adjust: none; font-kerning: auto; font-variant-alternates: normal; font-variant-ligatures: normal; font-variant-numeric: normal; font-variant-east-asian: normal; font-variant-position: normal; font-variant-emoji: normal; font-feature-settings: normal; font-optical-sizing: auto; font-variation-settings: normal;&quot;&gt;处理支付&lt;/p&gt;" style="text;html=1;align=center;verticalAlign=middle;whiteSpace=wrap;rounded=0;" vertex="1" parent="_vKv7suW9C9v6eIGBpXc-27">
          <mxGeometry x="345" y="330" width="80" height="20" as="geometry" />
        </mxCell>
        <mxCell id="_vKv7suW9C9v6eIGBpXc-60" value="&lt;p style=&quot;margin: 0px; font-style: normal; font-variant-caps: normal; font-stretch: normal; line-height: normal; font-size-adjust: none; font-kerning: auto; font-variant-alternates: normal; font-variant-ligatures: normal; font-variant-numeric: normal; font-variant-east-asian: normal; font-variant-position: normal; font-variant-emoji: normal; font-feature-settings: normal; font-optical-sizing: auto; font-variation-settings: normal;&quot;&gt;调用支付接口&lt;/p&gt;" style="text;html=1;align=center;verticalAlign=middle;whiteSpace=wrap;rounded=0;" vertex="1" parent="_vKv7suW9C9v6eIGBpXc-27">
          <mxGeometry x="620" y="345" width="80" height="20" as="geometry" />
        </mxCell>
        <mxCell id="_vKv7suW9C9v6eIGBpXc-61" value="" style="endArrow=open;startArrow=none;endFill=0;startFill=0;endSize=8;html=1;verticalAlign=bottom;labelBackgroundColor=none;strokeWidth=1;rounded=0;" edge="1" parent="_vKv7suW9C9v6eIGBpXc-27">
          <mxGeometry width="160" relative="1" as="geometry">
            <mxPoint x="610" y="365" as="sourcePoint" />
            <mxPoint x="710" y="365" as="targetPoint" />
          </mxGeometry>
        </mxCell>
        <mxCell id="_vKv7suW9C9v6eIGBpXc-62" value="" style="endArrow=open;startArrow=none;endFill=0;startFill=0;endSize=8;html=1;verticalAlign=bottom;labelBackgroundColor=none;strokeWidth=1;rounded=0;" edge="1" parent="_vKv7suW9C9v6eIGBpXc-27">
          <mxGeometry width="160" relative="1" as="geometry">
            <mxPoint x="710" y="390" as="sourcePoint" />
            <mxPoint x="610" y="390" as="targetPoint" />
          </mxGeometry>
        </mxCell>
        <mxCell id="_vKv7suW9C9v6eIGBpXc-63" value="&lt;p style=&quot;margin: 0px; font-style: normal; font-variant-caps: normal; font-stretch: normal; line-height: normal; font-size-adjust: none; font-kerning: auto; font-variant-alternates: normal; font-variant-ligatures: normal; font-variant-numeric: normal; font-variant-east-asian: normal; font-variant-position: normal; font-variant-emoji: normal; font-feature-settings: normal; font-optical-sizing: auto; font-variation-settings: normal;&quot;&gt;支付结束&lt;/p&gt;" style="text;html=1;align=center;verticalAlign=middle;whiteSpace=wrap;rounded=0;" vertex="1" parent="_vKv7suW9C9v6eIGBpXc-27">
          <mxGeometry x="620" y="370" width="80" height="20" as="geometry" />
        </mxCell>
        <mxCell id="_vKv7suW9C9v6eIGBpXc-64" value="alt" style="shape=umlFrame;whiteSpace=wrap;html=1;pointerEvents=0;recursiveResize=0;container=1;collapsible=0;width=60;height=30;" vertex="1" parent="_vKv7suW9C9v6eIGBpXc-27">
          <mxGeometry x="10" y="420" width="770" height="300" as="geometry" />
        </mxCell>
        <mxCell id="_vKv7suW9C9v6eIGBpXc-65" value="【支付成功】" style="text;html=1;" vertex="1" parent="_vKv7suW9C9v6eIGBpXc-64">
          <mxGeometry width="80" height="20" relative="1" as="geometry">
            <mxPoint x="290" as="offset" />
          </mxGeometry>
        </mxCell>
        <mxCell id="_vKv7suW9C9v6eIGBpXc-66" value="" style="line;strokeWidth=1;dashed=1;labelPosition=center;verticalLabelPosition=bottom;align=left;verticalAlign=top;spacingLeft=20;spacingTop=15;html=1;whiteSpace=wrap;" vertex="1" parent="_vKv7suW9C9v6eIGBpXc-64">
          <mxGeometry y="190" width="770" height="10" as="geometry" />
        </mxCell>
        <mxCell id="_vKv7suW9C9v6eIGBpXc-67" value="" style="html=1;points=[[0,0,0,0,5],[0,1,0,0,-5],[1,0,0,0,5],[1,1,0,0,-5]];perimeter=orthogonalPerimeter;outlineConnect=0;targetShapes=umlLifeline;portConstraint=eastwest;newEdgeStyle={&quot;curved&quot;:0,&quot;rounded&quot;:0};" vertex="1" parent="_vKv7suW9C9v6eIGBpXc-64">
          <mxGeometry x="260" y="40" width="10" height="122" as="geometry" />
        </mxCell>
        <mxCell id="_vKv7suW9C9v6eIGBpXc-68" value="" style="html=1;points=[[0,0,0,0,5],[0,1,0,0,-5],[1,0,0,0,5],[1,1,0,0,-5]];perimeter=orthogonalPerimeter;outlineConnect=0;targetShapes=umlLifeline;portConstraint=eastwest;newEdgeStyle={&quot;curved&quot;:0,&quot;rounded&quot;:0};" vertex="1" parent="_vKv7suW9C9v6eIGBpXc-64">
          <mxGeometry x="370" y="71" width="10" height="60" as="geometry" />
        </mxCell>
        <mxCell id="_vKv7suW9C9v6eIGBpXc-69" value="" style="html=1;points=[[0,0,0,0,5],[0,1,0,0,-5],[1,0,0,0,5],[1,1,0,0,-5]];perimeter=orthogonalPerimeter;outlineConnect=0;targetShapes=umlLifeline;portConstraint=eastwest;newEdgeStyle={&quot;curved&quot;:0,&quot;rounded&quot;:0};" vertex="1" parent="_vKv7suW9C9v6eIGBpXc-64">
          <mxGeometry x="480" y="140" width="10" height="50" as="geometry" />
        </mxCell>
        <mxCell id="_vKv7suW9C9v6eIGBpXc-70" value="" style="html=1;points=[[0,0,0,0,5],[0,1,0,0,-5],[1,0,0,0,5],[1,1,0,0,-5]];perimeter=orthogonalPerimeter;outlineConnect=0;targetShapes=umlLifeline;portConstraint=eastwest;newEdgeStyle={&quot;curved&quot;:0,&quot;rounded&quot;:0};" vertex="1" parent="_vKv7suW9C9v6eIGBpXc-64">
          <mxGeometry x="590" y="30" width="10" height="60" as="geometry" />
        </mxCell>
        <mxCell id="_vKv7suW9C9v6eIGBpXc-46" value="&lt;p style=&quot;margin: 0px; font-style: normal; font-variant-caps: normal; font-stretch: normal; line-height: normal; font-size-adjust: none; font-kerning: auto; font-variant-alternates: normal; font-variant-ligatures: normal; font-variant-numeric: normal; font-variant-east-asian: normal; font-variant-position: normal; font-variant-emoji: normal; font-feature-settings: normal; font-optical-sizing: auto; font-variation-settings: normal;&quot;&gt;通知支付成功&lt;/p&gt;" style="text;html=1;align=center;verticalAlign=middle;whiteSpace=wrap;rounded=0;" vertex="1" parent="_vKv7suW9C9v6eIGBpXc-64">
          <mxGeometry x="390" y="32" width="80" height="20" as="geometry" />
        </mxCell>
        <mxCell id="_vKv7suW9C9v6eIGBpXc-45" value="" style="endArrow=open;startArrow=none;endFill=0;startFill=0;endSize=8;html=1;verticalAlign=bottom;labelBackgroundColor=none;strokeWidth=1;rounded=0;" edge="1" parent="_vKv7suW9C9v6eIGBpXc-64">
          <mxGeometry width="160" relative="1" as="geometry">
            <mxPoint x="590" y="53.00000000000023" as="sourcePoint" />
            <mxPoint x="270" y="53.00000000000023" as="targetPoint" />
          </mxGeometry>
        </mxCell>
        <mxCell id="_vKv7suW9C9v6eIGBpXc-71" value="" style="endArrow=open;startArrow=none;endFill=0;startFill=0;endSize=8;html=1;verticalAlign=bottom;labelBackgroundColor=none;strokeWidth=1;rounded=0;" edge="1" parent="_vKv7suW9C9v6eIGBpXc-64">
          <mxGeometry width="160" relative="1" as="geometry">
            <mxPoint x="270" y="89" as="sourcePoint" />
            <mxPoint x="370" y="89" as="targetPoint" />
          </mxGeometry>
        </mxCell>
        <mxCell id="_vKv7suW9C9v6eIGBpXc-72" value="&lt;p style=&quot;margin: 0px; font-style: normal; font-variant-caps: normal; font-stretch: normal; line-height: normal; font-size-adjust: none; font-kerning: auto; font-variant-alternates: normal; font-variant-ligatures: normal; font-variant-numeric: normal; font-variant-east-asian: normal; font-variant-position: normal; font-variant-emoji: normal; font-feature-settings: normal; font-optical-sizing: auto; font-variation-settings: normal;&quot;&gt;更新状态为已激活&lt;/p&gt;" style="text;html=1;align=center;verticalAlign=middle;whiteSpace=wrap;rounded=0;" vertex="1" parent="_vKv7suW9C9v6eIGBpXc-64">
          <mxGeometry x="270" y="66" width="100" height="20" as="geometry" />
        </mxCell>
        <mxCell id="_vKv7suW9C9v6eIGBpXc-73" value="" style="endArrow=open;startArrow=none;endFill=0;startFill=0;endSize=8;html=1;verticalAlign=bottom;labelBackgroundColor=none;strokeWidth=1;rounded=0;" edge="1" parent="_vKv7suW9C9v6eIGBpXc-64">
          <mxGeometry width="160" relative="1" as="geometry">
            <mxPoint x="370" y="120" as="sourcePoint" />
            <mxPoint x="270" y="120" as="targetPoint" />
          </mxGeometry>
        </mxCell>
        <mxCell id="_vKv7suW9C9v6eIGBpXc-74" value="&lt;p style=&quot;margin: 0px; font-style: normal; font-variant-caps: normal; font-stretch: normal; line-height: normal; font-size-adjust: none; font-kerning: auto; font-variant-alternates: normal; font-variant-ligatures: normal; font-variant-numeric: normal; font-variant-east-asian: normal; font-variant-position: normal; font-variant-emoji: normal; font-feature-settings: normal; font-optical-sizing: auto; font-variation-settings: normal;&quot;&gt;更新成功返回&lt;/p&gt;" style="text;html=1;align=center;verticalAlign=middle;whiteSpace=wrap;rounded=0;" vertex="1" parent="_vKv7suW9C9v6eIGBpXc-64">
          <mxGeometry x="280" y="100" width="80" height="20" as="geometry" />
        </mxCell>
        <mxCell id="_vKv7suW9C9v6eIGBpXc-75" value="" style="endArrow=open;startArrow=none;endFill=0;startFill=0;endSize=8;html=1;verticalAlign=bottom;labelBackgroundColor=none;strokeWidth=1;rounded=0;" edge="1" parent="_vKv7suW9C9v6eIGBpXc-64">
          <mxGeometry width="160" relative="1" as="geometry">
            <mxPoint x="260" y="246.36999999999992" as="sourcePoint" />
            <mxPoint x="480" y="246.3699999999999" as="targetPoint" />
          </mxGeometry>
        </mxCell>
        <mxCell id="_vKv7suW9C9v6eIGBpXc-76" value="&lt;p style=&quot;margin: 0px; font-style: normal; font-variant-caps: normal; font-stretch: normal; line-height: normal; font-size-adjust: none; font-kerning: auto; font-variant-alternates: normal; font-variant-ligatures: normal; font-variant-numeric: normal; font-variant-east-asian: normal; font-variant-position: normal; font-variant-emoji: normal; font-feature-settings: normal; font-optical-sizing: auto; font-variation-settings: normal;&quot;&gt;通知支付失败&lt;/p&gt;" style="text;html=1;align=center;verticalAlign=middle;whiteSpace=wrap;rounded=0;" vertex="1" parent="_vKv7suW9C9v6eIGBpXc-64">
          <mxGeometry x="325" y="225" width="80" height="20" as="geometry" />
        </mxCell>
        <mxCell id="_vKv7suW9C9v6eIGBpXc-77" value="&lt;p style=&quot;margin: 0px; font-style: normal; font-variant-caps: normal; font-stretch: normal; line-height: normal; font-size-adjust: none; font-kerning: auto; font-variant-alternates: normal; font-variant-ligatures: normal; font-variant-numeric: normal; font-variant-east-asian: normal; font-variant-position: normal; font-variant-emoji: normal; font-feature-settings: normal; font-optical-sizing: auto; font-variation-settings: normal;&quot;&gt;推送短信&lt;/p&gt;" style="text;html=1;align=center;verticalAlign=middle;whiteSpace=wrap;rounded=0;" vertex="1" parent="_vKv7suW9C9v6eIGBpXc-64">
          <mxGeometry x="225" y="163.5" width="80" height="20" as="geometry" />
        </mxCell>
        <mxCell id="_vKv7suW9C9v6eIGBpXc-78" value="" style="endArrow=open;startArrow=none;endFill=0;startFill=0;endSize=8;html=1;verticalAlign=bottom;labelBackgroundColor=none;strokeWidth=1;rounded=0;" edge="1" parent="_vKv7suW9C9v6eIGBpXc-64" target="_vKv7suW9C9v6eIGBpXc-79">
          <mxGeometry width="160" relative="1" as="geometry">
            <mxPoint x="480" y="183.00000000000023" as="sourcePoint" />
            <mxPoint x="160" y="183.00000000000023" as="targetPoint" />
          </mxGeometry>
        </mxCell>
        <mxCell id="_vKv7suW9C9v6eIGBpXc-79" value="" style="html=1;points=[[0,0,0,0,5],[0,1,0,0,-5],[1,0,0,0,5],[1,1,0,0,-5]];perimeter=orthogonalPerimeter;outlineConnect=0;targetShapes=umlLifeline;portConstraint=eastwest;newEdgeStyle={&quot;curved&quot;:0,&quot;rounded&quot;:0};" vertex="1" parent="_vKv7suW9C9v6eIGBpXc-64">
          <mxGeometry x="40" y="160" width="10" height="31" as="geometry" />
        </mxCell>
        <mxCell id="_vKv7suW9C9v6eIGBpXc-81" value="&lt;p style=&quot;margin: 0px; font-style: normal; font-variant-caps: normal; font-stretch: normal; line-height: normal; font-size-adjust: none; font-kerning: auto; font-variant-alternates: normal; font-variant-ligatures: normal; font-variant-numeric: normal; font-variant-east-asian: normal; font-variant-position: normal; font-variant-emoji: normal; font-feature-settings: normal; font-optical-sizing: auto; font-variation-settings: normal;&quot;&gt;【支付失败】&lt;/p&gt;" style="text;html=1;align=center;verticalAlign=middle;whiteSpace=wrap;rounded=0;" vertex="1" parent="_vKv7suW9C9v6eIGBpXc-64">
          <mxGeometry x="290" y="197" width="80" height="20" as="geometry" />
        </mxCell>
        <mxCell id="_vKv7suW9C9v6eIGBpXc-82" value="" style="html=1;points=[[0,0,0,0,5],[0,1,0,0,-5],[1,0,0,0,5],[1,1,0,0,-5]];perimeter=orthogonalPerimeter;outlineConnect=0;targetShapes=umlLifeline;portConstraint=eastwest;newEdgeStyle={&quot;curved&quot;:0,&quot;rounded&quot;:0};" vertex="1" parent="_vKv7suW9C9v6eIGBpXc-64">
          <mxGeometry x="480" y="230" width="10" height="60" as="geometry" />
        </mxCell>
        <mxCell id="_vKv7suW9C9v6eIGBpXc-83" value="" style="html=1;points=[[0,0,0,0,5],[0,1,0,0,-5],[1,0,0,0,5],[1,1,0,0,-5]];perimeter=orthogonalPerimeter;outlineConnect=0;targetShapes=umlLifeline;portConstraint=eastwest;newEdgeStyle={&quot;curved&quot;:0,&quot;rounded&quot;:0};" vertex="1" parent="_vKv7suW9C9v6eIGBpXc-64">
          <mxGeometry x="260" y="229" width="10" height="30" as="geometry" />
        </mxCell>
        <mxCell id="_vKv7suW9C9v6eIGBpXc-84" value="" style="html=1;points=[[0,0,0,0,5],[0,1,0,0,-5],[1,0,0,0,5],[1,1,0,0,-5]];perimeter=orthogonalPerimeter;outlineConnect=0;targetShapes=umlLifeline;portConstraint=eastwest;newEdgeStyle={&quot;curved&quot;:0,&quot;rounded&quot;:0};" vertex="1" parent="_vKv7suW9C9v6eIGBpXc-64">
          <mxGeometry x="40" y="260" width="10" height="30" as="geometry" />
        </mxCell>
        <mxCell id="_vKv7suW9C9v6eIGBpXc-85" value="&lt;p style=&quot;margin: 0px; font-style: normal; font-variant-caps: normal; font-stretch: normal; line-height: normal; font-size-adjust: none; font-kerning: auto; font-variant-alternates: normal; font-variant-ligatures: normal; font-variant-numeric: normal; font-variant-east-asian: normal; font-variant-position: normal; font-variant-emoji: normal; font-feature-settings: normal; font-optical-sizing: auto; font-variation-settings: normal;&quot;&gt;提示支付失败&lt;/p&gt;" style="text;html=1;align=center;verticalAlign=middle;whiteSpace=wrap;rounded=0;" vertex="1" parent="_vKv7suW9C9v6eIGBpXc-64">
          <mxGeometry x="225" y="259" width="80" height="20" as="geometry" />
        </mxCell>
        <mxCell id="_vKv7suW9C9v6eIGBpXc-86" value="" style="endArrow=open;startArrow=none;endFill=0;startFill=0;endSize=8;html=1;verticalAlign=bottom;labelBackgroundColor=none;strokeWidth=1;rounded=0;" edge="1" parent="_vKv7suW9C9v6eIGBpXc-64">
          <mxGeometry width="160" relative="1" as="geometry">
            <mxPoint x="480" y="278.5000000000002" as="sourcePoint" />
            <mxPoint x="50" y="278.5" as="targetPoint" />
          </mxGeometry>
        </mxCell>
        <mxCell id="_vKv7suW9C9v6eIGBpXc-87" value="【信息验证通过】" style="text;html=1;" vertex="1" parent="_vKv7suW9C9v6eIGBpXc-27">
          <mxGeometry x="335" y="734" width="100" height="20" as="geometry" />
        </mxCell>
        <mxCell id="_vKv7suW9C9v6eIGBpXc-89" value="" style="html=1;points=[[0,0,0,0,5],[0,1,0,0,-5],[1,0,0,0,5],[1,1,0,0,-5]];perimeter=orthogonalPerimeter;outlineConnect=0;targetShapes=umlLifeline;portConstraint=eastwest;newEdgeStyle={&quot;curved&quot;:0,&quot;rounded&quot;:0};" vertex="1" parent="_vKv7suW9C9v6eIGBpXc-27">
          <mxGeometry x="270" y="760" width="10" height="60" as="geometry" />
        </mxCell>
        <mxCell id="_vKv7suW9C9v6eIGBpXc-90" value="" style="html=1;points=[[0,0,0,0,5],[0,1,0,0,-5],[1,0,0,0,5],[1,1,0,0,-5]];perimeter=orthogonalPerimeter;outlineConnect=0;targetShapes=umlLifeline;portConstraint=eastwest;newEdgeStyle={&quot;curved&quot;:0,&quot;rounded&quot;:0};" vertex="1" parent="_vKv7suW9C9v6eIGBpXc-27">
          <mxGeometry x="160" y="773.5" width="10" height="43" as="geometry" />
        </mxCell>
        <mxCell id="_vKv7suW9C9v6eIGBpXc-91" value="" style="html=1;points=[[0,0,0,0,5],[0,1,0,0,-5],[1,0,0,0,5],[1,1,0,0,-5]];perimeter=orthogonalPerimeter;outlineConnect=0;targetShapes=umlLifeline;portConstraint=eastwest;newEdgeStyle={&quot;curved&quot;:0,&quot;rounded&quot;:0};" vertex="1" parent="_vKv7suW9C9v6eIGBpXc-27">
          <mxGeometry x="50" y="790" width="10" height="30" as="geometry" />
        </mxCell>
        <mxCell id="_vKv7suW9C9v6eIGBpXc-93" value="" style="endArrow=open;startArrow=none;endFill=0;startFill=0;endSize=8;html=1;verticalAlign=bottom;labelBackgroundColor=none;strokeWidth=1;rounded=0;" edge="1" parent="_vKv7suW9C9v6eIGBpXc-27">
          <mxGeometry width="160" relative="1" as="geometry">
            <mxPoint x="270" y="789" as="sourcePoint" />
            <mxPoint x="170" y="789" as="targetPoint" />
          </mxGeometry>
        </mxCell>
        <mxCell id="_vKv7suW9C9v6eIGBpXc-94" value="&lt;p style=&quot;margin: 0px; font-style: normal; font-variant-caps: normal; font-stretch: normal; line-height: normal; font-size-adjust: none; font-kerning: auto; font-variant-alternates: normal; font-variant-ligatures: normal; font-variant-numeric: normal; font-variant-east-asian: normal; font-variant-position: normal; font-variant-emoji: normal; font-feature-settings: normal; font-optical-sizing: auto; font-variation-settings: normal;&quot;&gt;返回错误信息&lt;/p&gt;" style="text;html=1;align=center;verticalAlign=middle;whiteSpace=wrap;rounded=0;" vertex="1" parent="_vKv7suW9C9v6eIGBpXc-27">
          <mxGeometry x="180" y="769" width="80" height="20" as="geometry" />
        </mxCell>
        <mxCell id="_vKv7suW9C9v6eIGBpXc-95" value="" style="endArrow=open;startArrow=none;endFill=0;startFill=0;endSize=8;html=1;verticalAlign=bottom;labelBackgroundColor=none;strokeWidth=1;rounded=0;" edge="1" parent="_vKv7suW9C9v6eIGBpXc-27">
          <mxGeometry width="160" relative="1" as="geometry">
            <mxPoint x="160" y="804.71" as="sourcePoint" />
            <mxPoint x="60" y="804.71" as="targetPoint" />
          </mxGeometry>
        </mxCell>
        <mxCell id="_vKv7suW9C9v6eIGBpXc-96" value="&lt;p style=&quot;margin: 0px; font-style: normal; font-variant-caps: normal; font-stretch: normal; line-height: normal; font-size-adjust: none; font-kerning: auto; font-variant-alternates: normal; font-variant-ligatures: normal; font-variant-numeric: normal; font-variant-east-asian: normal; font-variant-position: normal; font-variant-emoji: normal; font-feature-settings: normal; font-optical-sizing: auto; font-variation-settings: normal;&quot;&gt;显示信息错误&lt;/p&gt;" style="text;html=1;align=center;verticalAlign=middle;whiteSpace=wrap;rounded=0;" vertex="1" parent="_vKv7suW9C9v6eIGBpXc-27">
          <mxGeometry x="70" y="784.71" width="80" height="20" as="geometry" />
        </mxCell>
      </root>
    </mxGraphModel>
  </diagram>
</mxfile>
